<svg width="19" height="18" viewBox="0 0 19 18" fill="none" xmlns="http://www.w3.org/2000/svg">
<path d="M13.6277 14.1584L10.0159 17.7702C9.87907 17.9071 9.69893 17.9894 9.51511 17.999C9.33129 18.0087 9.15884 17.945 9.03569 17.8218L5.32124 14.1074L9.44893 9.97969L13.6277 14.1584ZM8.52031 9.05107L4.39263 13.1788L0.678173 9.46431C0.555031 9.34116 0.491285 9.16871 0.50096 8.98489C0.510635 8.80107 0.592938 8.62093 0.729762 8.4841L4.34155 4.87231L8.52031 9.05107ZM13.6788 3.89263L9.55211 8.01928L5.37334 3.84052L8.9841 0.229762C9.12093 0.0929376 9.30107 0.0106352 9.48489 0.000960236C9.66871 -0.0087147 9.84116 0.0550304 9.96431 0.178172L13.6788 3.89263ZM18.3218 8.53569C18.445 8.65883 18.5087 8.83129 18.499 9.01511C18.4894 9.19893 18.4071 9.37907 18.2702 9.5159L14.6595 13.1267L10.4807 8.94789L14.6074 4.82124L18.3218 8.53569Z" fill="#10151F"/>
</svg>
