<svg width="19" height="19" viewBox="0 0 19 19" fill="none" xmlns="http://www.w3.org/2000/svg">
<path d="M18.7218 9.13567C18.845 9.25881 18.9087 9.43126 18.899 9.61509C18.8894 9.79891 18.8071 9.97905 18.6702 10.1159L10.4159 18.3702C10.2791 18.507 10.0989 18.5893 9.9151 18.599C9.73128 18.6087 9.55883 18.5449 9.43569 18.4218L1.07817 10.0643C0.955025 9.94114 0.891279 9.76869 0.900954 9.58487C0.910629 9.40104 0.992932 9.2209 1.12976 9.08408L9.3841 0.829737C9.52092 0.692913 9.70106 0.610611 9.88488 0.600936C10.0687 0.591261 10.2412 0.655006 10.3643 0.778148L18.7218 9.13567ZM8.91979 9.65157L5.66964 6.40142L2.57427 9.4968L5.82441 12.7469L8.91979 9.65157ZM13.0986 13.8303L9.8484 10.5802L6.75303 13.6756L10.0032 16.9257L13.0986 13.8303ZM13.047 5.52439L9.79681 2.27425L6.70144 5.36963L9.95158 8.61977L13.047 5.52439ZM17.2257 9.70315L13.9756 6.45301L10.8802 9.54839L14.1303 12.7985L17.2257 9.70315Z" fill="#10151F"/>
</svg>
