<svg width="40" height="40" viewBox="0 0 40 40" fill="none" xmlns="http://www.w3.org/2000/svg">
<path d="M20.3061 17.2729V23.0821H28.5436C28.1819 24.9503 27.0964 26.5322 25.4684 27.5958L30.4359 31.3731C33.3302 28.755 35 24.9095 35 20.3413C35 19.2777 34.9026 18.2548 34.7216 17.2731L20.3061 17.2729Z" fill="#10151F"/>
<path d="M6.64212 13.2776C5.59858 15.2957 5.00031 17.573 5.00031 20.0003C5.00031 22.4275 5.59858 24.7048 6.64212 26.7229C6.64212 26.7365 11.735 22.8502 11.735 22.8502C11.4289 21.9502 11.2479 20.9957 11.2479 20.0001C11.2479 19.0045 11.4289 18.05 11.735 17.15L6.64212 13.2776Z" fill="#10151F"/>
<path d="M20.306 10.9728C22.5602 10.9728 24.5639 11.7364 26.1641 13.2091L30.5472 8.91371C27.8895 6.48646 24.4387 5 20.306 5C14.3227 5 9.16041 8.36819 6.64185 13.2773L11.7346 17.1501C12.9451 13.6046 16.3264 10.9728 20.306 10.9728Z" fill="#10151F"/>
<path d="M11.728 22.8552L10.6076 23.6957L6.64185 26.7229C9.16041 31.6184 14.3224 35.0003 20.3057 35.0003C24.4383 35.0003 27.903 33.6639 30.4355 31.373L25.468 27.5957C24.1043 28.4957 22.365 29.0412 20.3057 29.0412C16.3261 29.0412 12.9449 26.4094 11.7342 22.8639L11.728 22.8552Z" fill="#10151F"/>
</svg>
