<svg width="15" height="16" viewBox="0 0 15 16" fill="none" xmlns="http://www.w3.org/2000/svg">
<path fill-rule="evenodd" clip-rule="evenodd" d="M7.5 15.5C11.6421 15.5 15 12.1421 15 8C15 3.85786 11.6421 0.5 7.5 0.5C3.35786 0.5 0 3.85786 0 8C0 12.1421 3.35786 15.5 7.5 15.5ZM8.83901 11.8503L8.95878 11.3607C8.89678 11.3898 8.79684 11.4231 8.65979 11.461C8.52236 11.4988 8.39868 11.5181 8.28998 11.5181C8.05844 11.5181 7.89542 11.4802 7.80078 11.4039C7.70683 11.3276 7.65997 11.1841 7.65997 10.9739C7.65997 10.8906 7.6741 10.7665 7.70368 10.604C7.73233 10.4405 7.76529 10.2951 7.80193 10.168L8.24903 8.5851C8.29282 8.43984 8.32285 8.28013 8.33899 8.10582C8.3555 7.9319 8.36319 7.81021 8.36319 7.74115C8.36319 7.40737 8.24619 7.1365 8.01212 6.92754C7.77804 6.71874 7.44472 6.61435 7.01275 6.61435C6.77238 6.61435 6.51826 6.65706 6.24931 6.74241C5.98036 6.82752 5.6992 6.93008 5.40505 7.04984L5.28498 7.53981C5.37263 7.50739 5.47703 7.47251 5.59918 7.4364C5.72078 7.40045 5.84009 7.38186 5.95616 7.38186C6.19315 7.38186 6.35279 7.42227 6.43645 7.50186C6.5201 7.58167 6.56212 7.72364 6.56212 7.9266C6.56212 8.03883 6.54883 8.16351 6.52126 8.29902C6.49406 8.43538 6.46011 8.57957 6.42016 8.73176L5.97114 10.321C5.9312 10.488 5.902 10.6374 5.88364 10.7701C5.86544 10.9026 5.85668 11.0327 5.85668 11.1591C5.85668 11.4858 5.97736 11.755 6.21866 11.9675C6.45995 12.1792 6.79827 12.2857 7.23323 12.2857C7.51647 12.2857 7.76506 12.2487 7.97901 12.1742C8.19272 12.1 8.47972 11.9921 8.83901 11.8503ZM8.75935 5.42024C8.96823 5.22658 9.07216 4.99105 9.07216 4.71526C9.07216 4.44009 8.96838 4.20409 8.75935 4.00797C8.55101 3.81239 8.29989 3.71429 8.00628 3.71429C7.71175 3.71429 7.45962 3.81216 7.24929 4.00797C7.03895 4.20409 6.93355 4.44001 6.93355 4.71526C6.93355 4.99105 7.03895 5.2265 7.24929 5.42024C7.46 5.6146 7.71167 5.71186 8.00628 5.71186C8.29996 5.71186 8.55101 5.6146 8.75935 5.42024Z" fill="#C4C7CC"/>
</svg>
