<svg width="30" height="30" viewBox="0 0 30 30" fill="none" xmlns="http://www.w3.org/2000/svg">
<path d="M23.6318 8.46748C23.4311 7.95052 23.1911 7.58126 22.8035 7.19354C22.4158 6.80582 22.0467 6.5658 21.5298 6.36502C21.1399 6.2127 20.5538 6.03268 19.474 5.98422C18.3065 5.93114 17.9558 5.9196 14.9977 5.9196C14.6286 5.9196 14.2986 5.9196 14.0033 5.9196C11.9382 5.9196 11.5437 5.93344 10.5215 5.9796C9.44168 6.02807 8.85562 6.20808 8.46568 6.3604C7.94883 6.56118 7.57966 6.8012 7.19203 7.18892C6.80439 7.57665 6.56443 7.94591 6.36369 8.46287C6.21141 8.8529 6.03144 9.4391 5.98298 10.5192C5.92991 11.687 5.91838 12.0355 5.91838 14.9941C5.91838 17.9528 5.92991 18.3036 5.98298 19.4714C6.03144 20.5515 6.21371 21.1377 6.36369 21.5277C6.56443 22.0447 6.80439 22.4139 7.19203 22.8017C7.57966 23.1894 7.94883 23.4294 8.46568 23.6302C8.85562 23.7825 9.44168 23.9625 10.5215 24.0133C11.689 24.0664 12.0397 24.0779 14.9977 24.0779C17.9558 24.0779 18.3065 24.0664 19.474 24.0133C20.5538 23.9648 21.1399 23.7848 21.5298 23.6325C22.0467 23.4317 22.4158 23.1917 22.8035 22.804C23.1911 22.4162 23.4311 22.0493 23.6318 21.5323C23.7841 21.1423 23.9641 20.5561 24.0125 19.476C24.0656 18.3082 24.0771 17.9574 24.0771 15.0011C24.0771 12.0447 24.0656 11.6939 24.0125 10.5261C23.9641 9.44602 23.7818 8.85982 23.6318 8.46979V8.46748ZM14.9977 20.69C11.8575 20.69 9.31016 18.1444 9.31016 15.0011C9.31016 11.8577 11.8575 9.31216 14.9977 9.31216C18.138 9.31216 20.6853 11.8601 20.6853 15.0011C20.6853 18.1421 18.1403 20.69 14.9977 20.69ZM20.9091 10.4176C20.1754 10.4176 19.5801 9.8222 19.5801 9.0883C19.5801 8.3544 20.1754 7.75897 20.9091 7.75897C21.6429 7.75897 22.2382 8.3544 22.2382 9.0883C22.2382 9.8222 21.6429 10.4176 20.9091 10.4176Z" fill="white"/>
<path d="M14.9977 18.6938C17.0366 18.6938 18.6894 17.0405 18.6894 15.0012C18.6894 12.9618 17.0366 11.3086 14.9977 11.3086C12.9588 11.3086 11.3059 12.9618 11.3059 15.0012C11.3059 17.0405 12.9588 18.6938 14.9977 18.6938Z" fill="white"/>
<path d="M29.9723 6.50127C29.8777 5.29656 29.6724 4.4865 29.2501 3.63028C28.904 2.92869 28.521 2.40711 27.9649 1.87168C26.9728 0.923148 25.7591 0.34618 24.3124 0.138472C23.611 0.0369259 23.4725 0.00692361 19.8869 0H15.0046C8.7425 0 6.91047 0.00692361 6.55515 0.0369259C5.26996 0.143088 4.46931 0.34618 3.59945 0.78006C2.92801 1.1147 2.39732 1.50012 1.87587 2.04246C0.922935 3.03023 0.346101 4.24417 0.13844 5.69121C0.0369174 6.3928 0.00692201 6.53589 0 10.1177C0 11.3132 0 12.8848 0 14.9942C0 21.2532 0.00692201 23.0833 0.0369174 23.4387C0.140748 24.6896 0.336871 25.4766 0.752192 26.3374C1.54592 27.9852 3.06184 29.2222 4.84772 29.6838C5.46608 29.8431 6.14905 29.9308 7.02584 29.9723C7.39732 29.9885 11.1837 30 14.9723 30C18.761 30 22.5496 29.9954 22.9119 29.9769C23.9271 29.9285 24.5178 29.85 25.1684 29.6815C26.9659 29.2176 28.4541 27.9991 29.264 26.3282C29.6701 25.4881 29.8777 24.6711 29.9723 23.4849C29.9931 23.2264 30 19.1045 30 14.9896C30 10.8747 29.9908 6.75975 29.97 6.50127H29.9723ZM26.006 19.5684C25.9506 20.7477 25.7637 21.5532 25.4915 22.2571C25.2077 22.9864 24.8293 23.6026 24.2132 24.2188C23.5971 24.835 22.9811 25.2135 22.252 25.4973C21.5482 25.772 20.7407 25.9589 19.5616 26.012C18.3802 26.0651 18.0042 26.0789 14.9954 26.0789C11.9866 26.0789 11.6105 26.0651 10.4292 26.012C9.25012 25.9589 8.44485 25.772 7.74112 25.4973C7.012 25.2135 6.39594 24.835 5.77988 24.2188C5.16382 23.6026 4.78542 22.9841 4.50162 22.2571C4.22704 21.5532 4.04246 20.7477 3.98708 19.5684C3.93401 18.3868 3.92017 18.0106 3.92017 15.0012C3.92017 11.9917 3.93401 11.6155 3.98708 10.4339C4.04015 9.25456 4.22704 8.44911 4.50162 7.74521C4.78542 7.01592 5.16382 6.39972 5.77988 5.78352C6.39594 5.16732 7.01431 4.78883 7.74112 4.50727C8.44485 4.23263 9.25012 4.0457 10.4292 3.99261C11.6105 3.93953 11.9889 3.92569 14.9931 3.92569H14.9977C18.0042 3.92569 18.3802 3.93953 19.5616 3.99261C20.7407 4.0457 21.5459 4.23263 22.252 4.50727C22.9811 4.78883 23.5971 5.16732 24.2132 5.78352C24.8293 6.39972 25.2077 7.01823 25.4915 7.74521C25.7637 8.44911 25.9506 9.25456 26.006 10.4339C26.0591 11.6155 26.0729 11.994 26.0729 15.0012C26.0729 18.0083 26.0591 18.3868 26.006 19.5684Z" fill="white"/>
</svg>
