<svg width="30" height="30" viewBox="0 0 30 30" fill="none" xmlns="http://www.w3.org/2000/svg">
<path fill-rule="evenodd" clip-rule="evenodd" d="M26.6667 0H3.33333C1.49167 0 0 1.49167 0 3.33333V26.6667C0 28.5083 1.49167 30 3.33333 30H26.6667C28.5083 30 30 28.5083 30 26.6667V3.33333C30 1.49167 28.5083 0 26.6667 0ZM9.07083 25.8333H4.59583V11.3875H9.07083V25.8333ZM6.8125 9.49583C5.35 9.49583 4.16667 8.30417 4.16667 6.82917C4.16667 5.35417 5.35 4.1625 6.8125 4.1625C8.275 4.1625 9.45833 5.35417 9.45833 6.82917C9.45833 8.30417 8.275 9.49583 6.8125 9.49583ZM25.8333 25.8333H21.3833V18.25C21.3833 16.1708 20.5917 15.0083 18.95 15.0083C17.1583 15.0083 16.225 16.2167 16.225 18.25V25.8333H11.9333V11.3875H16.225V13.3333C16.225 13.3333 17.5167 10.9458 20.5792 10.9458C23.6417 10.9458 25.8375 12.8167 25.8375 16.6875V25.8333H25.8333Z" fill="#10151F"/>
</svg>
