<svg width="36" height="36" viewBox="0 0 36 36" fill="none" xmlns="http://www.w3.org/2000/svg">
<path fill-rule="evenodd" clip-rule="evenodd" d="M35.5 18C35.5 27.665 27.665 35.5 18 35.5C14.9736 35.5 12.1267 34.7318 9.64358 33.3797L0.5 35.5L2.77309 26.6312C1.32625 24.0842 0.5 21.1386 0.5 18C0.5 8.33502 8.33502 0.5 18 0.5C27.665 0.5 35.5 8.33502 35.5 18ZM32.8077 18C32.8077 26.1781 26.1781 32.8077 18 32.8077C14.8807 32.8077 11.9867 31.8432 9.59991 30.1962L4.53846 31.4615L5.8648 26.4878C4.18063 24.0843 3.19231 21.1576 3.19231 18C3.19231 9.82194 9.82194 3.19231 18 3.19231C26.1781 3.19231 32.8077 9.82194 32.8077 18Z" fill="#10151F"/>
<path fill-rule="evenodd" clip-rule="evenodd" d="M18 33C26.2843 33 33 26.2843 33 18C33 9.71573 26.2843 3 18 3C9.71573 3 3 9.71573 3 18C3 21.1986 4.00115 24.1633 5.7072 26.598L4.36364 31.6364L9.49082 30.3546C11.9086 32.023 14.8402 33 18 33ZM12.0715 9.11228C12.6657 9.10714 13.2403 9.10216 13.625 9.87486C13.9579 10.5434 14.3672 11.6913 14.8504 13.0624L14.8566 13.0802C14.9695 13.4 15.1456 13.8994 14.9141 14.2303C14.6783 14.5675 14.1524 15.246 13.7715 15.6854C13.674 15.798 13.4784 16.0556 13.7449 16.4754C13.8111 16.5798 13.8683 16.6867 13.9313 16.8045C14.185 17.2791 14.5332 17.9305 15.9493 19.3033C17.3787 20.6888 19.1718 21.4864 19.8331 21.7518C20.0129 21.8537 20.4447 21.9902 20.7344 21.7206C20.8676 21.5966 21.1185 21.2761 21.3922 20.9264C21.7136 20.5159 22.0664 20.0652 22.2969 19.8456C22.3038 19.8393 22.311 19.8327 22.3183 19.826C22.4725 19.6847 22.7168 19.4607 23.166 19.6405C23.5593 19.798 25.0684 20.5242 26.2083 21.0727C26.4324 21.1806 26.6423 21.2816 26.8266 21.37C27.0078 21.4275 27.2709 21.639 27.2709 22.0629C27.2709 23.0193 26.5938 25.8513 23.3027 25.9099C20.0117 25.9685 16.0476 24.2474 13.0305 20.9201C9.90431 17.4725 8.97656 15.1678 8.97656 13.0624C8.97656 10.4935 10.7735 9.11312 11.9258 9.11312C11.9745 9.11312 12.0231 9.1127 12.0715 9.11228Z" fill="#10151F"/>
</svg>
